<?xml version="1.0" encoding="UTF-8" standalone="no"?>
<svg
   xmlns:dc="http://purl.org/dc/elements/1.1/"
   xmlns:cc="http://creativecommons.org/ns#"
   xmlns:rdf="http://www.w3.org/1999/02/22-rdf-syntax-ns#"
   xmlns:svg="http://www.w3.org/2000/svg"
   xmlns="http://www.w3.org/2000/svg"
   xmlns:sodipodi="http://sodipodi.sourceforge.net/DTD/sodipodi-0.dtd"
   xmlns:inkscape="http://www.inkscape.org/namespaces/inkscape"
   version="1.1"
   x="0px"
   y="0px"
   width="100px"
   height="100px"
   viewBox="5.0 -10.0 100.0 135.0"
   enable-background="new 0 0 100 100"
   xml:space="preserve"
   id="svg2"
   inkscape:version="0.48.5 r10040"
   sodipodi:docname="cloudy.svg"><metadata
     id="metadata17"><rdf:RDF><cc:Work
         rdf:about=""><dc:format>image/svg+xml</dc:format><dc:type
           rdf:resource="http://purl.org/dc/dcmitype/StillImage" /></cc:Work></rdf:RDF></metadata><defs
     id="defs15" /><sodipodi:namedview
     pagecolor="#ffffff"
     bordercolor="#666666"
     borderopacity="1"
     objecttolerance="10"
     gridtolerance="10"
     guidetolerance="10"
     inkscape:pageopacity="0"
     inkscape:pageshadow="2"
     inkscape:window-width="975"
     inkscape:window-height="766"
     id="namedview13"
     showgrid="false"
     inkscape:zoom="2.36"
     inkscape:cx="50"
     inkscape:cy="50"
     inkscape:window-x="0"
     inkscape:window-y="0"
     inkscape:window-maximized="0"
     inkscape:current-layer="svg2" /><g
     id="Layer_1"
     transform="translate(6.2923729,4.5762712)"><path
       d="m 11.035,62.931 c -0.479,0 -0.959,-0.167 -1.348,-0.507 C 6.733,59.83 5.039,56.103 5.039,52.196 c 0,-7.538 6.193,-13.669 13.807,-13.669 0.779,0 1.553,0.065 2.314,0.193 2.637,-8.925 10.95,-15.2 20.529,-15.2 4.218,0 8.298,1.214 11.8,3.511 0.943,0.618 1.206,1.885 0.587,2.828 -0.617,0.944 -1.885,1.206 -2.826,0.588 -2.836,-1.859 -6.142,-2.841 -9.561,-2.841 -8.35,0 -15.508,5.875 -17.02,13.968 -0.109,0.582 -0.465,1.088 -0.976,1.387 -0.512,0.299 -1.129,0.362 -1.688,0.171 -1.019,-0.345 -2.082,-0.52 -3.16,-0.52 -5.36,0 -9.721,4.299 -9.721,9.584 0,2.73 1.188,5.339 3.258,7.157 0.849,0.744 0.933,2.035 0.188,2.882 -0.402,0.461 -0.968,0.696 -1.535,0.696 z m 83.816,-3.259 c 0,-9.084 -7.468,-16.476 -16.646,-16.476 -2.235,0 -4.441,0.446 -6.486,1.303 C 67.94,37.938 60.855,33.802 53.125,33.802 c -9.58,0 -17.893,6.274 -20.53,15.2 -0.763,-0.129 -1.536,-0.193 -2.314,-0.193 -7.612,0 -13.807,6.132 -13.807,13.669 0,7.377 6.062,13.506 13.553,13.663 0,0 47.859,0.006 48.179,0.006 9.177,0 16.645,-7.391 16.645,-16.475 z M 30.07,73 c -5.245,0 -9.513,-4.88 -9.513,-10.051 0,-5.285 4.361,-9.914 9.723,-9.914 1.078,0 2.141,0.105 3.161,0.451 0.561,0.19 1.177,0.092 1.688,-0.208 0.511,-0.299 0.866,-0.822 0.976,-1.403 1.514,-8.094 8.671,-13.976 17.021,-13.976 6.841,0 13.056,3.992 15.832,10.171 0.235,0.527 0.687,0.933 1.237,1.109 0.55,0.178 1.148,0.124 1.65,-0.167 1.924,-1.117 4.123,-1.684 6.36,-1.684 6.926,0 12.561,5.604 12.561,12.436 0,6.832 -5.635,12.769 -12.561,12.769 C 77.897,72.534 33.334,73 30.239,73 c -0.113,0 -0.171,0 -0.169,0 z"
       id="path5"
       inkscape:connector-curvature="0" /></g><g
     id="Layer_2" /><g
     id="Layer_3" /></svg>