<?xml version="1.0" encoding="UTF-8" standalone="no"?>
<svg
   xmlns:dc="http://purl.org/dc/elements/1.1/"
   xmlns:cc="http://creativecommons.org/ns#"
   xmlns:rdf="http://www.w3.org/1999/02/22-rdf-syntax-ns#"
   xmlns:svg="http://www.w3.org/2000/svg"
   xmlns="http://www.w3.org/2000/svg"
   xmlns:sodipodi="http://sodipodi.sourceforge.net/DTD/sodipodi-0.dtd"
   xmlns:inkscape="http://www.inkscape.org/namespaces/inkscape"
   version="1.1"
   x="0px"
   y="0px"
   width="100px"
   height="100px"
   viewBox="5.0 -10.0 100.0 135.0"
   enable-background="new 0 0 100 100"
   xml:space="preserve"
   id="svg2"
   inkscape:version="0.48.5 r10040"
   sodipodi:docname="partly_sunny.svg"><metadata
     id="metadata29"><rdf:RDF><cc:Work
         rdf:about=""><dc:format>image/svg+xml</dc:format><dc:type
           rdf:resource="http://purl.org/dc/dcmitype/StillImage" /></cc:Work></rdf:RDF></metadata><defs
     id="defs27" /><sodipodi:namedview
     pagecolor="#ffffff"
     bordercolor="#666666"
     borderopacity="1"
     objecttolerance="10"
     gridtolerance="10"
     guidetolerance="10"
     inkscape:pageopacity="0"
     inkscape:pageshadow="2"
     inkscape:window-width="640"
     inkscape:window-height="480"
     id="namedview25"
     showgrid="false"
     inkscape:zoom="2.36"
     inkscape:cx="50"
     inkscape:cy="47.033898"
     inkscape:window-x="0"
     inkscape:window-y="0"
     inkscape:window-maximized="0"
     inkscape:current-layer="svg2" /><g
     id="Layer_1"
     transform="translate(4.0042373,6.8644068)"><g
       id="g5"><path
         d="m 20.964,30.702 c 0.318,0.761 1.057,1.219 1.832,1.219 0.257,0 0.518,-0.05 0.769,-0.155 1.012,-0.424 1.488,-1.589 1.065,-2.601 L 22.708,24.58 c -0.424,-1.012 -1.588,-1.488 -2.601,-1.064 -1.013,0.424 -1.489,1.589 -1.065,2.601 l 1.922,4.585 z"
         id="path7"
         inkscape:connector-curvature="0" /><path
         d="m 78.902,45.187 c -2.156,0 -4.286,0.431 -6.258,1.257 C 69.001,40.115 62.166,36.126 54.71,36.126 c -9.24,0 -17.258,6.052 -19.802,14.66 -0.735,-0.124 -1.481,-0.186 -2.232,-0.186 -7.343,0 -13.317,5.915 -13.317,13.185 0,7.116 5.845,13.027 13.072,13.178 0,0 46.161,0.006 46.471,0.006 8.852,0 16.055,-7.129 16.055,-15.891 0,-8.762 -7.203,-15.891 -16.055,-15.891 z m 0,27.757 c -0.299,0 -43.4,-0.09 -46.279,-0.09 -0.1,0 -0.151,0 -0.149,0 -5.059,0 -9.175,-4.167 -9.175,-9.154 0,-5.097 4.208,-9.16 9.378,-9.16 1.038,0 2.064,0.169 3.048,0.502 0.541,0.184 1.135,0.123 1.628,-0.166 0.493,-0.289 0.836,-0.777 0.941,-1.339 1.46,-7.807 8.363,-13.474 16.417,-13.474 6.599,0 12.592,3.851 15.27,9.811 0.228,0.509 0.662,0.895 1.193,1.066 0.529,0.171 1.111,0.104 1.593,-0.177 1.854,-1.078 3.977,-1.658 6.136,-1.658 6.68,0 12.114,5.339 12.114,11.929 0,6.591 -5.435,11.91 -12.115,11.91 z"
         id="path9"
         inkscape:connector-curvature="0" /><path
         d="m 19.639,53.377 c -0.606,-1.436 -0.914,-2.961 -0.913,-4.531 0,-6.502 5.363,-11.793 11.956,-11.793 2.398,0 4.713,0.698 6.692,2.02 0.91,0.609 2.146,0.362 2.756,-0.549 0.609,-0.913 0.362,-2.147 -0.55,-2.756 -2.635,-1.759 -5.711,-2.688 -8.898,-2.688 -8.784,0 -15.93,7.073 -15.93,15.767 -0.001,2.104 0.413,4.149 1.226,6.076 0.32,0.759 1.056,1.215 1.831,1.215 0.259,0 0.521,-0.05 0.771,-0.157 1.012,-0.428 1.485,-1.593 1.059,-2.604 z"
         id="path11"
         inkscape:connector-curvature="0" /><path
         d="M 12.34,39.173 7.701,37.275 c -1.016,-0.417 -2.177,0.07 -2.592,1.086 -0.415,1.016 0.071,2.175 1.086,2.591 l 4.639,1.899 C 11.08,42.952 11.335,43 11.587,43 12.37,43 13.11,42.534 13.426,41.766 13.843,40.75 13.355,39.589 12.34,39.173 z"
         id="path13"
         inkscape:connector-curvature="0" /><path
         d="m 37.88,31.766 c 0.252,0.105 0.512,0.155 0.768,0.155 0.776,0 1.515,-0.458 1.834,-1.219 l 1.922,-4.585 c 0.424,-1.011 -0.052,-2.176 -1.064,-2.6 -1.014,-0.424 -2.177,0.052 -2.601,1.063 l -1.923,4.585 c -0.424,1.012 0.053,2.176 1.064,2.601 z"
         id="path15"
         inkscape:connector-curvature="0" /><path
         d="M 10.834,54.841 6.195,56.74 c -1.015,0.416 -1.501,1.576 -1.086,2.591 0.314,0.77 1.057,1.235 1.84,1.235 0.251,0 0.506,-0.048 0.752,-0.149 l 4.639,-1.899 c 1.016,-0.416 1.503,-1.576 1.086,-2.591 -0.415,-1.016 -1.576,-1.502 -2.592,-1.086 z"
         id="path17"
         inkscape:connector-curvature="0" /></g></g><g
     id="Layer_2" /><g
     id="Layer_3" /></svg>