<?xml version="1.0" encoding="UTF-8" standalone="no"?>
<svg
   xmlns:dc="http://purl.org/dc/elements/1.1/"
   xmlns:cc="http://creativecommons.org/ns#"
   xmlns:rdf="http://www.w3.org/1999/02/22-rdf-syntax-ns#"
   xmlns:svg="http://www.w3.org/2000/svg"
   xmlns="http://www.w3.org/2000/svg"
   xmlns:sodipodi="http://sodipodi.sourceforge.net/DTD/sodipodi-0.dtd"
   xmlns:inkscape="http://www.inkscape.org/namespaces/inkscape"
   version="1.1"
   x="0px"
   y="0px"
   width="100px"
   height="100px"
   viewBox="5.0 -10.0 100.0 135.0"
   enable-background="new 0 0 100 100"
   xml:space="preserve"
   id="svg2"
   inkscape:version="0.48.5 r10040"
   sodipodi:docname="raining.svg"><metadata
     id="metadata17"><rdf:RDF><cc:Work
         rdf:about=""><dc:format>image/svg+xml</dc:format><dc:type
           rdf:resource="http://purl.org/dc/dcmitype/StillImage" /></cc:Work></rdf:RDF></metadata><defs
     id="defs15" /><sodipodi:namedview
     pagecolor="#ffffff"
     bordercolor="#666666"
     borderopacity="1"
     objecttolerance="10"
     gridtolerance="10"
     guidetolerance="10"
     inkscape:pageopacity="0"
     inkscape:pageshadow="2"
     inkscape:window-width="640"
     inkscape:window-height="480"
     id="namedview13"
     showgrid="false"
     inkscape:zoom="2.36"
     inkscape:cx="50"
     inkscape:cy="50"
     inkscape:window-x="0"
     inkscape:window-y="0"
     inkscape:window-maximized="0"
     inkscape:current-layer="svg2" /><g
     id="Layer_1"
     transform="translate(4.0042373,8.5805085)"><path
       d="m 75.859,59.506 c -0.367,0 -0.367,0 -55.267,-0.008 -8.594,-0.18 -15.546,-7.21 -15.546,-15.673 0,-8.646 7.105,-15.681 15.838,-15.681 0.892,0 1.778,0.074 2.654,0.222 C 26.564,18.13 36.1,10.93 47.088,10.93 c 8.868,0 16.996,4.746 21.331,12.271 2.345,-0.983 4.877,-1.495 7.439,-1.495 10.529,0 19.094,8.479 19.094,18.899 0.001,10.423 -8.563,18.901 -19.093,18.901 z M 20.885,32.831 c -6.149,0 -11.152,4.932 -11.152,10.994 0,5.933 4.895,10.861 10.909,10.986 54.851,0.008 54.851,0.008 55.218,0.008 7.944,0 14.408,-6.376 14.408,-14.213 0,-7.837 -6.464,-14.213 -14.408,-14.213 -2.564,0 -5.088,0.677 -7.296,1.959 C 67.99,28.685 67.3,28.759 66.67,28.556 66.037,28.353 65.523,27.891 65.25,27.285 62.066,20.196 54.938,15.616 47.089,15.616 c -9.578,0 -17.788,6.738 -19.522,16.022 -0.126,0.668 -0.533,1.248 -1.119,1.591 -0.587,0.344 -1.294,0.415 -1.936,0.198 -1.173,-0.395 -2.394,-0.596 -3.627,-0.596 z m -4.301,38.227 2.239,-5.406 c 0.495,-1.195 -0.073,-2.566 -1.27,-3.062 -1.194,-0.496 -2.565,0.073 -3.061,1.268 l -2.239,5.407 c -0.495,1.195 0.073,2.566 1.269,3.061 0.293,0.122 0.597,0.18 0.896,0.18 0.918,-0.001 1.791,-0.545 2.166,-1.448 z m 10.539,5.406 4.479,-10.812 c 0.496,-1.195 -0.072,-2.566 -1.268,-3.062 -1.196,-0.496 -2.566,0.073 -3.062,1.268 l -4.479,10.813 c -0.494,1.195 0.073,2.565 1.269,3.062 0.294,0.121 0.597,0.179 0.896,0.179 0.919,-0.001 1.792,-0.546 2.165,-1.448 z m 20.937,11.158 9.1,-21.971 c 0.496,-1.195 -0.071,-2.566 -1.268,-3.062 -1.195,-0.496 -2.566,0.073 -3.061,1.268 L 43.73,85.828 c -0.495,1.196 0.073,2.566 1.268,3.062 0.294,0.12 0.598,0.179 0.896,0.179 0.92,0 1.793,-0.545 2.166,-1.447 z m 30.178,-11.158 4.48,-10.812 c 0.495,-1.195 -0.072,-2.566 -1.269,-3.062 -1.198,-0.496 -2.566,0.073 -3.062,1.268 L 73.91,74.671 c -0.496,1.195 0.072,2.565 1.268,3.062 0.294,0.121 0.597,0.179 0.896,0.179 0.92,-0.001 1.792,-0.546 2.164,-1.448 z M 42.142,71.058 44.38,65.652 c 0.496,-1.195 -0.072,-2.566 -1.268,-3.062 -1.196,-0.494 -2.565,0.074 -3.062,1.27 l -2.238,5.407 c -0.496,1.195 0.072,2.566 1.268,3.061 0.293,0.121 0.598,0.179 0.896,0.179 0.92,-0.002 1.792,-0.547 2.166,-1.449 z m 25.557,0 2.239,-5.406 c 0.496,-1.195 -0.071,-2.566 -1.268,-3.062 -1.196,-0.496 -2.567,0.073 -3.061,1.268 l -2.24,5.407 c -0.496,1.195 0.073,2.566 1.269,3.061 0.293,0.122 0.597,0.18 0.896,0.18 0.92,-0.001 1.792,-0.545 2.165,-1.448 z"
       id="path5"
       inkscape:connector-curvature="0" /></g><g
     id="Layer_2" /><g
     id="Layer_3" /></svg>