<?xml version="1.0" encoding="UTF-8" standalone="no"?>
<svg
   xmlns:dc="http://purl.org/dc/elements/1.1/"
   xmlns:cc="http://creativecommons.org/ns#"
   xmlns:rdf="http://www.w3.org/1999/02/22-rdf-syntax-ns#"
   xmlns:svg="http://www.w3.org/2000/svg"
   xmlns="http://www.w3.org/2000/svg"
   xmlns:sodipodi="http://sodipodi.sourceforge.net/DTD/sodipodi-0.dtd"
   xmlns:inkscape="http://www.inkscape.org/namespaces/inkscape"
   version="1.1"
   x="0px"
   y="0px"
   width="100px"
   height="100px"
   viewBox="5.0 -10.0 100.0 135.0"
   enable-background="new 0 0 100 100"
   xml:space="preserve"
   id="svg2"
   inkscape:version="0.48.5 r10040"
   sodipodi:docname="snowing.svg"><metadata
     id="metadata17"><rdf:RDF><cc:Work
         rdf:about=""><dc:format>image/svg+xml</dc:format><dc:type
           rdf:resource="http://purl.org/dc/dcmitype/StillImage" /></cc:Work></rdf:RDF></metadata><defs
     id="defs15" /><sodipodi:namedview
     pagecolor="#ffffff"
     bordercolor="#666666"
     borderopacity="1"
     objecttolerance="10"
     gridtolerance="10"
     guidetolerance="10"
     inkscape:pageopacity="0"
     inkscape:pageshadow="2"
     inkscape:window-width="640"
     inkscape:window-height="480"
     id="namedview13"
     showgrid="false"
     inkscape:zoom="2.36"
     inkscape:cx="50"
     inkscape:cy="50"
     inkscape:window-x="0"
     inkscape:window-y="0"
     inkscape:window-maximized="0"
     inkscape:current-layer="svg2" /><g
     id="Layer_1"
     transform="translate(4.5762712,9.7245763)"><path
       d="m 23.219,69.152 c 0,1.295 -1.051,2.572 -2.347,2.572 h -0.371 v 0.072 c 0,1.296 -1.276,2.347 -2.572,2.347 -1.296,0 -2.572,-1.051 -2.572,-2.347 v -0.072 h -0.373 c -1.296,0 -2.347,-1.277 -2.347,-2.572 0,-1.296 1.051,-2.573 2.347,-2.573 h 0.373 v -0.072 c 0,-1.296 1.276,-2.347 2.572,-2.347 1.296,0 2.572,1.051 2.572,2.347 v 0.072 h 0.371 c 1.296,0.001 2.347,1.277 2.347,2.573 z M 95.017,42.273 c 0,-10.438 -8.58,-18.93 -19.125,-18.93 -2.568,0 -5.104,0.513 -7.453,1.498 C 64.098,17.303 55.958,12.55 47.076,12.55 c -11.006,0 -20.556,7.21 -23.588,17.463 -0.877,-0.148 -1.765,-0.222 -2.659,-0.222 -8.748,0 -15.864,7.046 -15.864,15.707 0,8.477 6.963,15.518 15.572,15.697 54.987,0.008 54.987,0.008 55.355,0.008 10.545,-0.001 19.125,-8.493 19.125,-18.93 z m -70.556,-7.19 c 0.644,0.218 1.351,0.146 1.939,-0.197 0.587,-0.344 0.996,-0.926 1.121,-1.594 1.738,-9.299 9.962,-16.048 19.555,-16.048 7.861,0 15,4.587 18.189,11.687 0.272,0.606 0.79,1.069 1.422,1.273 0.632,0.204 1.323,0.129 1.898,-0.205 2.21,-1.284 4.738,-1.962 7.308,-1.962 7.957,0 14.431,6.387 14.431,14.236 0,7.849 -6.474,14.235 -14.431,14.235 -0.368,0 -0.368,0 -55.306,-0.007 C 14.562,56.376 9.66,51.439 9.66,45.497 c 0,-6.073 5.01,-11.013 11.17,-11.013 1.235,0 2.457,0.202 3.631,0.599 z M 36.817,66.58 h -0.371 v -0.072 c 0,-1.296 -1.276,-2.347 -2.572,-2.347 -1.296,0 -2.572,1.051 -2.572,2.347 v 0.072 h -0.373 c -1.296,0 -2.347,1.276 -2.347,2.573 0,1.295 1.051,2.572 2.347,2.572 h 0.373 v 0.072 c 0,1.296 1.276,2.347 2.572,2.347 1.296,0 2.572,-1.051 2.572,-2.347 v -0.072 h 0.371 c 1.296,0 2.347,-1.277 2.347,-2.572 0,-1.297 -1.051,-2.573 -2.347,-2.573 z m 15.945,0 h -0.371 v -0.072 c 0,-1.296 -1.276,-2.347 -2.572,-2.347 -1.296,0 -2.572,1.051 -2.572,2.347 v 0.072 h -0.373 c -1.296,0 -2.347,1.276 -2.347,2.573 0,1.295 1.051,2.572 2.347,2.572 h 0.373 v 0.072 c 0,1.296 1.276,2.347 2.572,2.347 1.296,0 2.572,-1.051 2.572,-2.347 v -0.072 h 0.371 c 1.296,0 2.347,-1.277 2.347,-2.572 -0.001,-1.297 -1.051,-2.573 -2.347,-2.573 z m 15.945,0 h -0.371 v -0.072 c 0,-1.296 -1.276,-2.347 -2.572,-2.347 -1.296,0 -2.572,1.051 -2.572,2.347 v 0.072 h -0.373 c -1.296,0 -2.347,1.276 -2.347,2.573 0,1.295 1.051,2.572 2.347,2.572 h 0.373 v 0.072 c 0,1.296 1.276,2.347 2.572,2.347 1.296,0 2.572,-1.051 2.572,-2.347 v -0.072 h 0.371 c 1.296,0 2.347,-1.277 2.347,-2.572 -0.001,-1.297 -1.052,-2.573 -2.347,-2.573 z m -31.89,13.149 h -0.371 v -0.072 c 0,-1.296 -1.276,-2.347 -2.572,-2.347 -1.296,0 -2.572,1.051 -2.572,2.347 v 0.072 h -0.373 c -1.296,0 -2.347,1.276 -2.347,2.573 0,1.295 1.051,2.572 2.347,2.572 h 0.373 v 0.072 c 0,1.296 1.276,2.347 2.572,2.347 1.296,0 2.572,-1.051 2.572,-2.347 v -0.072 h 0.371 c 1.296,0 2.347,-1.277 2.347,-2.572 0,-1.296 -1.051,-2.573 -2.347,-2.573 z m 31.89,0 h -0.371 v -0.072 c 0,-1.296 -1.276,-2.347 -2.572,-2.347 -1.296,0 -2.572,1.051 -2.572,2.347 v 0.072 h -0.373 c -1.296,0 -2.347,1.276 -2.347,2.573 0,1.295 1.051,2.572 2.347,2.572 h 0.373 v 0.072 c 0,1.296 1.276,2.347 2.572,2.347 1.296,0 2.572,-1.051 2.572,-2.347 v -0.072 h 0.371 c 1.296,0 2.347,-1.277 2.347,-2.572 -0.001,-1.296 -1.052,-2.573 -2.347,-2.573 z M 84.651,66.58 H 84.28 v -0.072 c 0,-1.296 -1.276,-2.347 -2.572,-2.347 -1.296,0 -2.572,1.051 -2.572,2.347 v 0.072 h -0.373 c -1.296,0 -2.347,1.276 -2.347,2.573 0,1.295 1.051,2.572 2.347,2.572 h 0.373 v 0.072 c 0,1.296 1.276,2.347 2.572,2.347 1.296,0 2.572,-1.051 2.572,-2.347 v -0.072 h 0.371 c 1.296,0 2.347,-1.277 2.347,-2.572 0,-1.297 -1.051,-2.573 -2.347,-2.573 z"
       id="path5"
       inkscape:connector-curvature="0" /></g><g
     id="Layer_2" /><g
     id="Layer_3" /></svg>