<?xml version="1.0" encoding="UTF-8" standalone="no"?>
<svg
   xmlns:dc="http://purl.org/dc/elements/1.1/"
   xmlns:cc="http://creativecommons.org/ns#"
   xmlns:rdf="http://www.w3.org/1999/02/22-rdf-syntax-ns#"
   xmlns:svg="http://www.w3.org/2000/svg"
   xmlns="http://www.w3.org/2000/svg"
   xmlns:sodipodi="http://sodipodi.sourceforge.net/DTD/sodipodi-0.dtd"
   xmlns:inkscape="http://www.inkscape.org/namespaces/inkscape"
   version="1.1"
   x="0px"
   y="0px"
   width="100px"
   height="100px"
   viewBox="5.0 -10.0 100.0 135.0"
   enable-background="new 0 0 100 100"
   xml:space="preserve"
   id="svg2"
   inkscape:version="0.48.5 r10040"
   sodipodi:docname="sunny.svg"><metadata
     id="metadata35"><rdf:RDF><cc:Work
         rdf:about=""><dc:format>image/svg+xml</dc:format><dc:type
           rdf:resource="http://purl.org/dc/dcmitype/StillImage" /></cc:Work></rdf:RDF></metadata><defs
     id="defs33" /><sodipodi:namedview
     pagecolor="#ffffff"
     bordercolor="#666666"
     borderopacity="1"
     objecttolerance="10"
     gridtolerance="10"
     guidetolerance="10"
     inkscape:pageopacity="0"
     inkscape:pageshadow="2"
     inkscape:window-width="640"
     inkscape:window-height="480"
     id="namedview31"
     showgrid="false"
     inkscape:zoom="2.36"
     inkscape:cx="50"
     inkscape:cy="50"
     inkscape:window-x="0"
     inkscape:window-y="0"
     inkscape:window-maximized="0"
     inkscape:current-layer="svg2" /><g
     id="Layer_1"
     transform="translate(5.1483051,6.8644068)"><g
       id="g5"><path
         d="m 83.23,39.848 c 0.435,0 0.878,-0.083 1.306,-0.258 l 8.056,-3.298 c 1.763,-0.722 2.607,-2.737 1.885,-4.5 -0.722,-1.764 -2.736,-2.607 -4.5,-1.886 l -8.056,3.298 c -1.764,0.722 -2.607,2.737 -1.886,4.5 0.547,1.336 1.835,2.144 3.195,2.144 z"
         id="path7"
         inkscape:connector-curvature="0" /><path
         d="m 66.946,81.507 c -0.737,-1.757 -2.758,-2.585 -4.517,-1.848 -1.757,0.737 -2.585,2.758 -1.848,4.516 l 3.337,7.961 c 0.554,1.322 1.834,2.117 3.184,2.117 0.445,0 0.896,-0.086 1.333,-0.269 1.757,-0.736 2.584,-2.758 1.848,-4.516 l -3.337,-7.961 z"
         id="path9"
         inkscape:connector-curvature="0" /><path
         d="m 49.928,22.621 c -15.252,0 -27.662,12.283 -27.662,27.379 0,15.096 12.409,27.378 27.662,27.378 15.252,0 27.66,-12.282 27.66,-27.378 0,-15.097 -12.408,-27.379 -27.66,-27.379 z m 0,47.857 C 38.481,70.478 29.167,61.292 29.167,50 c 0,-11.292 9.314,-20.479 20.761,-20.479 11.447,0 20.759,9.187 20.759,20.479 0,11.292 -9.312,20.478 -20.759,20.478 z"
         id="path11"
         inkscape:connector-curvature="0" /><path
         d="m 37.57,79.659 c -1.755,-0.737 -3.779,0.091 -4.516,1.849 l -3.336,7.962 c -0.736,1.757 0.091,3.779 1.849,4.515 0.436,0.183 0.887,0.27 1.332,0.27 1.349,0 2.63,-0.796 3.184,-2.118 l 3.337,-7.962 c 0.736,-1.758 -0.092,-3.78 -1.85,-4.516 z"
         id="path13"
         inkscape:connector-curvature="0" /><path
         d="m 92.591,63.708 -8.056,-3.297 c -1.761,-0.722 -3.778,0.122 -4.5,1.886 -0.722,1.763 0.123,3.778 1.886,4.5 l 8.056,3.297 c 0.427,0.175 0.87,0.258 1.306,0.258 1.359,0 2.647,-0.809 3.194,-2.145 0.722,-1.763 -0.123,-3.777 -1.886,-4.499 z"
         id="path15"
         inkscape:connector-curvature="0" /><path
         d="m 62.429,20.34 c 0.436,0.183 0.888,0.269 1.333,0.269 1.349,0 2.629,-0.795 3.184,-2.117 l 3.336,-7.961 C 71.018,8.773 70.191,6.752 68.434,6.015 66.678,5.278 64.655,6.106 63.918,7.863 l -3.337,7.961 c -0.737,1.758 0.091,3.78 1.848,4.516 z"
         id="path17"
         inkscape:connector-curvature="0" /><path
         d="m 18.078,33.204 -8.055,-3.298 c -1.765,-0.722 -3.779,0.122 -4.5,1.886 -0.722,1.763 0.122,3.778 1.885,4.5 l 8.055,3.298 c 0.428,0.175 0.871,0.258 1.306,0.258 1.359,0 2.648,-0.808 3.194,-2.144 0.723,-1.763 -0.121,-3.779 -1.885,-4.5 z"
         id="path19"
         inkscape:connector-curvature="0" /><path
         d="m 33.054,18.492 c 0.554,1.322 1.835,2.117 3.184,2.117 0.445,0 0.897,-0.086 1.333,-0.269 1.757,-0.736 2.585,-2.758 1.848,-4.516 L 36.082,7.863 C 35.346,6.106 33.324,5.278 31.566,6.015 29.809,6.751 28.982,8.773 29.718,10.531 l 3.336,7.961 z"
         id="path21"
         inkscape:connector-curvature="0" /><path
         d="m 15.463,60.41 -8.055,3.297 c -1.763,0.722 -2.607,2.737 -1.885,4.5 0.547,1.335 1.835,2.144 3.194,2.144 0.436,0 0.878,-0.083 1.306,-0.258 l 8.055,-3.297 c 1.764,-0.722 2.608,-2.737 1.886,-4.5 -0.721,-1.764 -2.736,-2.607 -4.501,-1.886 z"
         id="path23"
         inkscape:connector-curvature="0" /></g></g><g
     id="Layer_2" /><g
     id="Layer_3" /></svg>