<?xml version="1.0" encoding="UTF-8" standalone="no"?>
<svg
   xmlns:dc="http://purl.org/dc/elements/1.1/"
   xmlns:cc="http://creativecommons.org/ns#"
   xmlns:rdf="http://www.w3.org/1999/02/22-rdf-syntax-ns#"
   xmlns:svg="http://www.w3.org/2000/svg"
   xmlns="http://www.w3.org/2000/svg"
   xmlns:sodipodi="http://sodipodi.sourceforge.net/DTD/sodipodi-0.dtd"
   xmlns:inkscape="http://www.inkscape.org/namespaces/inkscape"
   version="1.1"
   x="0px"
   y="0px"
   width="100px"
   height="100px"
   viewBox="5.0 -10.0 100.0 135.0"
   enable-background="new 0 0 100 100"
   xml:space="preserve"
   id="svg2"
   inkscape:version="0.48.5 r10040"
   sodipodi:docname="thunderstorm.svg"><metadata
     id="metadata17"><rdf:RDF><cc:Work
         rdf:about=""><dc:format>image/svg+xml</dc:format><dc:type
           rdf:resource="http://purl.org/dc/dcmitype/StillImage" /></cc:Work></rdf:RDF></metadata><defs
     id="defs15" /><sodipodi:namedview
     pagecolor="#ffffff"
     bordercolor="#666666"
     borderopacity="1"
     objecttolerance="10"
     gridtolerance="10"
     guidetolerance="10"
     inkscape:pageopacity="0"
     inkscape:pageshadow="2"
     inkscape:window-width="640"
     inkscape:window-height="480"
     id="namedview13"
     showgrid="false"
     inkscape:zoom="2.36"
     inkscape:cx="50"
     inkscape:cy="50"
     inkscape:window-x="0"
     inkscape:window-y="0"
     inkscape:window-maximized="0"
     inkscape:current-layer="svg2" /><g
     id="Layer_1"
     transform="translate(6.8644068,9.1525424)"><path
       d="m 75.926,57.292 c -0.367,0 -0.367,0 -55.409,-0.008 C 11.9,57.105 4.93,50.057 4.93,41.572 c 0,-8.67 7.123,-15.723 15.879,-15.723 0.895,0 1.785,0.075 2.662,0.223 3.033,-10.263 12.593,-17.479 23.611,-17.479 8.89,0 17.039,4.758 21.384,12.303 2.352,-0.985 4.891,-1.499 7.46,-1.499 10.557,0 19.145,8.5 19.145,18.948 0,10.448 -8.589,18.947 -19.145,18.947 z M 20.809,30.549 c -6.165,0 -11.18,4.944 -11.18,11.023 0,5.947 4.906,10.889 10.938,11.015 54.992,0.008 54.992,0.008 55.359,0.008 7.966,0 14.446,-6.393 14.446,-14.25 0,-7.857 -6.48,-14.25 -14.446,-14.25 -2.571,0 -5.101,0.68 -7.314,1.964 -0.576,0.334 -1.266,0.409 -1.899,0.205 C 66.08,26.06 65.563,25.597 65.29,24.991 62.098,17.884 54.951,13.292 47.083,13.292 c -9.604,0 -17.836,6.756 -19.574,16.063 -0.126,0.669 -0.535,1.251 -1.122,1.595 -0.588,0.344 -1.296,0.417 -1.94,0.198 -1.176,-0.398 -2.4,-0.599 -3.638,-0.599 z m -4.313,38.325 2.246,-5.42 c 0.496,-1.198 -0.073,-2.572 -1.271,-3.069 -1.197,-0.497 -2.573,0.072 -3.069,1.271 l -2.245,5.42 c -0.496,1.199 0.072,2.573 1.271,3.069 0.294,0.122 0.599,0.18 0.898,0.18 0.921,0 1.796,-0.546 2.17,-1.451 z m 10.567,5.421 4.49,-10.841 c 0.496,-1.198 -0.072,-2.572 -1.271,-3.069 -1.197,-0.497 -2.572,0.072 -3.069,1.271 l -4.49,10.841 c -0.496,1.198 0.072,2.572 1.271,3.069 0.294,0.121 0.599,0.18 0.898,0.18 0.921,0 1.796,-0.547 2.171,-1.451 z m 51.249,0 4.49,-10.841 c 0.497,-1.198 -0.072,-2.572 -1.271,-3.069 -1.197,-0.497 -2.572,0.072 -3.069,1.271 l -4.49,10.841 c -0.496,1.198 0.073,2.572 1.271,3.069 0.294,0.121 0.599,0.18 0.898,0.18 0.921,0 1.797,-0.547 2.171,-1.451 z M 51.464,89.957 58.73,72.415 c 0.307,-0.739 0.216,-1.583 -0.241,-2.24 -0.456,-0.657 -1.204,-1.031 -2.015,-1.006 l -10.425,0.383 2.165,-5.228 c 0.497,-1.198 -0.073,-2.573 -1.271,-3.069 -1.197,-0.496 -2.572,0.073 -3.069,1.271 l -3.565,8.607 c -0.307,0.739 -0.215,1.583 0.241,2.24 0.457,0.657 1.215,1.038 2.016,1.006 L 52.99,73.996 47.125,88.158 c -0.496,1.198 0.073,2.572 1.271,3.068 0.294,0.122 0.599,0.18 0.898,0.18 0.92,10e-4 1.795,-0.545 2.17,-1.449 z m 16.28,-21.083 2.245,-5.42 c 0.497,-1.198 -0.072,-2.572 -1.271,-3.069 -1.199,-0.497 -2.573,0.072 -3.069,1.271 l -2.246,5.42 c -0.496,1.199 0.073,2.573 1.271,3.069 0.294,0.122 0.6,0.18 0.898,0.18 0.923,0 1.797,-0.546 2.172,-1.451 z"
       id="path5"
       inkscape:connector-curvature="0" /></g><g
     id="Layer_2" /><g
     id="Layer_3" /></svg>